<mxfile host="app.diagrams.net" modified="2023-08-03T23:23:15.966Z" agent="Mozilla/5.0 (Windows NT 10.0; Win64; x64) AppleWebKit/537.36 (KHTML, like Gecko) Chrome/115.0.0.0 Safari/537.36" version="21.6.6" etag="pyIuBZDMNsVEEOuB6Efb" type="github">
  <diagram name="Page-1" id="4owErmS_pNh7iQ-9NX1T">
    <mxGraphModel>
      <root>
        <mxCell id="0" />
        <mxCell id="1" parent="0" />
      </root>
    </mxGraphModel>
  </diagram>
</mxfile>
